<?xml version="1.0" standalone="no"?>
<!DOCTYPE svg PUBLIC "-//W3C//DTD SVG 20010904//EN"
 "http://www.w3.org/TR/2001/REC-SVG-20010904/DTD/svg10.dtd">
<svg version="1.0" xmlns="http://www.w3.org/2000/svg"
 width="500.000000pt" height="500.000000pt" viewBox="0 0 500.000000 500.000000"
 preserveAspectRatio="xMidYMid meet">
<metadata>
Created by potrace 1.14, written by Peter Selinger 2001-2017
</metadata>
<g transform="translate(0.000000,500.000000) scale(0.100000,-0.100000)"
fill="#000000" stroke="none">
<path d="M3080 4016 c0 -28 0 -189 0 -358 0 -208 -4 -309 -11 -314 -6 -3 -232
-6 -503 -6 l-491 0 0 -381 c1 -210 -1 -389 -3 -397 -3 -13 -65 -15 -495 -14
-271 0 -497 -3 -502 -7 -7 -5 -10 -158 -10 -443 1 -240 -2 -436 -6 -436 -4 0
-38 -20 -76 -45 -37 -25 -80 -51 -96 -58 -15 -6 -27 -15 -27 -19 0 -5 -5 -8
-11 -8 -6 0 -23 -8 -37 -19 -51 -36 -244 -151 -253 -151 -5 0 -9 -4 -9 -9 0
-5 -14 -14 -31 -21 -17 -7 -36 -18 -42 -24 -19 -17 -117 -76 -128 -76 -5 0 -9
-4 -9 -9 0 -5 -14 -14 -30 -21 -17 -7 -32 -16 -35 -20 -2 -4 986 -7 2198 -6
l2202 1 2 45 c4 82 5 173 4 350 -1 165 -3 648 -2 680 0 8 0 67 0 130 -1 63 0
122 0 130 0 8 0 80 0 160 -1 80 -1 150 -1 155 1 6 1 82 1 170 0 88 0 169 0
180 1 435 1 548 -3 552 -2 2 0 19 4 36 4 18 4 51 1 74 l-6 41 -32 -16 c-18
-10 -69 -39 -114 -67 -45 -27 -100 -61 -123 -74 -22 -13 -43 -27 -46 -30 -3
-4 -16 -12 -30 -19 -31 -15 -60 -33 -77 -49 -7 -6 -22 -15 -33 -18 -11 -3 -20
-11 -20 -16 0 -6 -4 -8 -9 -5 -5 3 -14 -1 -21 -9 -7 -8 -19 -15 -26 -15 -8 0
-14 -4 -14 -9 0 -5 -8 -11 -18 -13 -18 -5 -19 7 -18 254 1 143 -1 263 -4 268
-3 4 -231 7 -507 7 l-503 0 0 -51z"/>
<path d="M276 818 c-9 -5 -12 -63 -12 -230 l1 -223 73 -1 c39 -1 75 -3 80 -4
4 -1 12 -1 17 0 6 1 39 4 75 5 76 3 132 14 125 25 -3 4 1 10 8 13 7 2 13 16
15 30 1 15 2 30 3 34 1 4 1 30 0 56 -1 37 -7 53 -26 71 l-24 22 21 21 c21 22
28 74 15 123 -6 26 -59 65 -71 53 -3 -3 -6 -2 -6 3 0 10 -275 13 -294 2z m212
-67 c20 -1 22 -6 22 -55 0 -59 -7 -66 -66 -66 l-34 0 0 58 c0 67 2 70 32 66
13 -1 33 -3 46 -3z m19 -195 c11 -11 11 -111 -1 -118 -6 -4 -30 -8 -53 -8
l-43 0 0 68 0 67 45 -1 c25 -1 48 -4 52 -8z"/>
<path d="M2265 822 c-26 -5 -65 -50 -66 -76 -3 -93 0 -290 5 -319 10 -54 54
-71 186 -72 58 -1 116 3 130 9 45 17 70 53 70 102 l0 44 -70 0 -70 0 0 -40 c0
-22 -3 -41 -7 -41 -42 -6 -76 -4 -86 6 -13 13 -18 315 -5 316 4 0 20 4 36 8
39 12 62 -3 62 -40 l0 -29 70 2 70 2 0 34 c0 81 -43 103 -197 100 -60 -1 -117
-4 -128 -6z"/>
<path d="M3513 819 c-59 -17 -63 -32 -63 -251 0 -109 3 -199 8 -199 4 -1 35
-2 70 -3 l62 -2 0 137 0 137 33 -2 c41 -4 57 9 57 45 0 28 -2 29 -45 29 -38 0
-45 3 -45 20 0 24 26 37 63 34 26 -3 28 -1 25 29 l-3 32 -65 2 c-36 1 -79 -3
-97 -8z"/>
<path d="M1233 783 c-14 -5 -8 -350 7 -377 13 -26 56 -50 71 -41 5 4 9 2 9 -2
0 -5 32 -9 70 -9 l71 1 -4 30 c-2 21 -9 30 -23 31 -10 1 -29 4 -41 8 -22 7
-23 12 -23 112 0 78 3 104 13 103 6 -1 26 -1 43 0 28 1 31 4 31 36 0 35 -1 35
-44 35 -43 0 -43 0 -43 35 0 19 -3 36 -7 36 -17 3 -122 4 -130 2z"/>
<path d="M3743 777 c-5 -8 -7 -121 -3 -142 1 -5 2 -14 0 -20 -6 -31 -4 -185 3
-185 4 0 7 -6 7 -13 0 -17 35 -50 58 -54 52 -10 148 -10 154 1 13 19 9 54 -7
60 -8 3 -15 2 -15 -3 0 -8 -36 -8 -45 1 -10 9 -17 52 -15 83 2 17 2 54 2 83 0
48 2 53 22 51 56 -4 63 0 64 36 l1 35 -45 0 c-28 0 -43 4 -39 10 3 6 2 10 -2
10 -5 0 -9 12 -8 28 0 27 -1 27 -63 28 -35 0 -66 -4 -69 -9z"/>
<path d="M1579 702 c-43 -21 -51 -51 -50 -175 1 -122 12 -150 64 -162 43 -10
227 -12 233 -3 3 5 13 8 23 8 26 0 53 34 56 72 l4 34 -52 1 c-65 2 -100 -5
-92 -18 16 -26 -24 -40 -87 -30 -5 0 -8 19 -8 41 l0 40 119 0 119 0 -1 73 c-1
65 -3 75 -29 100 -31 31 -27 30 -165 32 -74 1 -111 -2 -134 -13z m186 -91 c-1
-14 -3 -28 -3 -31 -1 -3 -22 -7 -47 -7 l-45 -2 0 39 c0 36 2 39 33 42 44 4 64
-9 62 -41z"/>
<path d="M2838 707 c-12 -4 -26 -13 -30 -20 -5 -8 -8 -6 -8 6 0 14 -10 17 -65
17 l-65 0 2 -172 3 -172 63 -2 c34 -1 65 3 69 9 3 6 6 61 5 124 -1 126 -2 125
66 127 37 1 37 2 35 41 0 22 -1 43 -2 47 -1 9 -42 7 -73 -5z"/>
<path d="M3034 704 c-28 -15 -48 -34 -51 -50 -1 -7 -3 -58 -4 -115 -1 -115 9
-150 50 -169 36 -18 129 -19 169 -3 20 9 38 10 45 5 7 -5 35 -8 62 -8 l50 1 1
173 1 172 -58 0 c-37 0 -59 -4 -62 -12 -3 -10 -8 -10 -21 1 -22 19 -149 22
-182 5z m177 -61 c1 -5 2 -50 3 -102 2 -107 -6 -124 -57 -115 -17 3 -33 7 -35
9 -2 2 -3 38 -3 82 0 147 -5 133 46 133 25 0 46 -3 46 -7z"/>
<path d="M4088 699 c-19 -10 -38 -24 -40 -31 -3 -7 -5 -54 -6 -104 -1 -50 -2
-95 -4 -100 -1 -5 4 -26 11 -46 11 -33 25 -45 64 -54 4 -1 8 -3 10 -4 1 -1 47
-3 102 -4 136 -3 178 15 191 82 6 29 4 31 -27 35 -93 13 -115 7 -110 -30 2
-14 -3 -15 -44 -15 -54 0 -55 0 -55 43 l0 40 120 -3 119 -3 -1 65 c-1 75 -20
126 -51 136 -12 4 -72 8 -133 9 -90 2 -117 -1 -146 -16z m187 -87 c-2 -36 -2
-37 -49 -38 -46 -1 -46 -1 -46 32 0 39 17 51 64 46 32 -4 34 -6 31 -40z"/>
<path d="M4653 702 c-19 -10 -27 -11 -33 -2 -4 7 -29 10 -66 8 l-59 -3 0 -170
c0 -94 4 -169 9 -167 5 2 13 -2 17 -10 5 -7 9 -8 9 -2 0 6 20 10 50 9 29 -1
51 3 51 9 1 6 2 20 3 31 0 11 5 26 10 34 6 9 5 12 -1 8 -11 -7 -12 158 -1 169
4 3 26 7 50 8 l43 1 2 46 c2 46 1 47 -28 45 -16 0 -41 -7 -56 -14z"/>
<path d="M765 702 c-12 -8 -13 -233 -1 -269 13 -42 118 -68 202 -49 29 7 30 5
31 -26 0 -18 -5 -36 -11 -40 -20 -14 -56 -8 -75 11 -25 25 -129 29 -138 5 -7
-20 12 -56 40 -74 26 -16 203 -23 250 -9 68 19 70 26 71 244 1 108 -2 201 -5
206 -3 6 -35 9 -70 7 l-64 -3 0 -122 c0 -67 -4 -125 -7 -129 -11 -11 -78 -12
-85 -1 -3 5 -6 65 -6 133 l-1 124 -60 0 c-34 0 -66 -4 -71 -8z"/>
</g>
</svg>
