<?xml version="1.0" standalone="no"?>
<!DOCTYPE svg PUBLIC "-//W3C//DTD SVG 20010904//EN"
 "http://www.w3.org/TR/2001/REC-SVG-20010904/DTD/svg10.dtd">
<svg version="1.0" xmlns="http://www.w3.org/2000/svg"
 width="604.000000pt" height="604.000000pt" viewBox="0 0 604.000000 604.000000"
 preserveAspectRatio="xMidYMid meet">
<metadata>
Created by potrace 1.14, written by Peter Selinger 2001-2017
</metadata>
<g transform="translate(0.000000,604.000000) scale(0.100000,-0.100000)"
fill="#000000" stroke="none">
<path d="M0 3020 l0 -2830 3020 0 3020 0 0 2830 0 2830 -3020 0 -3020 0 0
-2830z m1706 1928 c172 -101 312 -187 311 -191 -1 -4 -142 -90 -312 -191
l-310 -183 -2 -1049 -2 -1049 555 -325 c305 -179 559 -326 564 -328 6 -2 10
377 10 1040 l0 1044 53 30 c28 17 172 101 319 188 l268 158 322 -187 c178
-103 324 -189 326 -190 2 -2 -141 -87 -317 -191 l-321 -189 -2 -1428 -3 -1427
-985 578 c-542 318 -1087 638 -1213 712 l-227 135 2 1429 3 1430 310 183 c171
100 316 183 324 183 8 0 155 -82 327 -182z m3595 -4 c220 -128 316 -189 307
-195 -7 -5 -151 -89 -320 -186 l-308 -178 0 -1036 c0 -813 -3 -1039 -12 -1051
-12 -14 -1115 -660 -1153 -674 -13 -5 -15 37 -15 370 l0 376 43 28 c24 15 141
83 260 152 l217 125 2 1044 3 1044 315 183 c173 101 321 184 328 184 7 0 157
-84 333 -186z"/>
</g>
</svg>
